<svg width="182" height="33" viewBox="0 0 182 33" fill="none" xmlns="http://www.w3.org/2000/svg">
<path d="M65.2513 7.8103H59.8055L54.1761 25.2991H58.8265L59.3772 23.5326H65.6797L66.2915 25.2991H70.8807L65.2513 7.8103ZM60.7845 19.234L62.559 13.6988L64.2723 19.234H60.7845Z" fill="#054586"/>
<path d="M98.5995 7.8103H93.1537L87.5243 25.2991H92.1746L92.7253 23.5326H99.0278L99.6397 25.2991H104.229L98.5995 7.8103ZM94.1327 19.234L95.9072 13.6988L97.6205 19.234H94.1327Z" fill="#054586"/>
<path d="M115.855 7.75153V16.1132L107.717 7.75153H106.616V12.639V25.4759H110.899V17.0553L119.037 25.4759H119.833H120.139V20.5295V7.75153H115.855Z" fill="#054586"/>
<path d="M49.2811 16.5841C50.6273 16.0542 52.157 14.8765 52.157 12.4622C52.157 8.2225 47.3231 7.8103 47.3231 7.8103H44.1413H41.9996H39.858V25.7113H41.9996H47.2007C47.2007 25.7113 52.157 25.358 52.157 20.8827C52.157 18.4096 50.5661 17.173 49.2811 16.5841ZM46.0381 21.5305H44.2024V18.2918H46.0993C46.0993 18.2918 47.7514 18.4096 47.7514 19.9406C47.7514 21.4127 46.0381 21.5305 46.0381 21.5305ZM46.0381 14.7587H44.2024V11.52H46.0993C46.0993 11.52 47.7514 11.6378 47.7514 13.1688C47.7514 14.6409 46.0381 14.7587 46.0381 14.7587Z" fill="#054586"/>
<path d="M77.6734 7.81038H77.551H75.4094H73.2678V25.7114H75.4094H77.551C77.551 25.7114 86.7905 26.1236 86.7905 16.4665C86.7905 7.69261 77.6734 7.81038 77.6734 7.81038ZM77.6122 20.8828V12.2267C77.6122 12.2267 82.2013 11.8734 82.2013 16.5253C82.2013 21.1772 77.6122 20.8828 77.6122 20.8828Z" fill="#054586"/>
<path d="M179.553 7.86923H175.392L172.21 15.5243L169.028 7.86923H164.928L162.42 25.7114H167.498C167.498 25.7114 168.355 17.9974 168.355 17.4675C168.416 17.9385 171.965 25.2992 172.21 25.7114C172.21 25.7114 176.004 17.9385 176.065 17.4675C176.065 17.9974 176.921 25.7114 176.921 25.7114H182L179.553 7.86923Z" fill="#009B4C"/>
<path d="M132.619 7.81041H130.478H128.336V25.7114H130.478H132.681V20.7062C132.681 20.7062 140.635 21.1773 140.635 14.2289C140.635 7.4571 132.619 7.81041 132.619 7.81041ZM134.21 16.1132H132.681V11.5202H134.272C134.272 11.5202 136.23 11.6968 136.23 13.8167C136.23 15.9365 134.21 16.1132 134.21 16.1132Z" fill="#009B4C"/>
<path d="M151.894 7.8103C146.815 7.8103 142.654 11.8145 142.654 16.7608C142.654 21.7071 146.815 25.6524 151.894 25.6524C157.034 25.6524 161.195 21.7071 161.195 16.7608C161.195 11.8145 157.034 7.8103 151.894 7.8103ZM151.894 21.2361C149.324 21.2361 147.244 19.234 147.244 16.7608C147.244 14.2876 149.324 12.2267 151.894 12.2267C154.525 12.2267 156.605 14.2876 156.605 16.7608C156.605 19.234 154.525 21.2361 151.894 21.2361Z" fill="#009B4C"/>
<path d="M24.4306 2.96474C23.9876 24.4351 14.5641 31.1785 14.5641 31.1785C25.0347 22.9818 26.9476 4.68934 27.2496 1.10449L24.4306 2.96474Z" fill="#009B4C"/>
<path d="M23.6253 3.50732L19.9405 5.96828C18.6921 10.7933 15.4099 20.4433 8.745 21.9548C5.38233 22.7105 2.60359 20.4821 0.972595 18.6412C1.09341 19.1644 2.80495 26.3147 11.5439 33C11.5439 33 11.5439 33 11.564 33C11.5841 32.9806 11.6848 32.9418 11.8258 32.8643C12.5305 32.4962 13.2151 32.0892 13.8595 31.6629C15.4703 30.2484 23.2427 22.4586 23.6253 3.50732Z" fill="#054586"/>
<path d="M28.2162 0.426306C27.9142 3.91427 26.0818 22.2648 14.6447 31.1204C28.1357 21.3735 28.8606 0 28.8606 0L28.2162 0.426306Z" fill="#054586"/>
</svg>
