<svg width="1440" height="40" viewBox="0 0 1440 40" fill="none" xmlns="http://www.w3.org/2000/svg">
<rect width="1440" height="40" fill="#009B4C"/>
<path d="M0 0H908.5L877.5 40H0V0Z" fill="#054586"/>
<path d="M895.5 0L924.5 0L893.5 40H864L895.5 0Z" fill="#054586" fill-opacity="0.32"/>
<path d="M647.144 20.592V24H646.052V15.54H648.74C649.708 15.54 650.432 15.768 650.912 16.224C651.392 16.672 651.632 17.288 651.632 18.072C651.632 18.864 651.384 19.484 650.888 19.932C650.392 20.372 649.676 20.592 648.74 20.592H647.144ZM648.644 19.68C649.308 19.68 649.784 19.54 650.072 19.26C650.368 18.98 650.516 18.584 650.516 18.072C650.516 17.544 650.368 17.144 650.072 16.872C649.784 16.592 649.308 16.452 648.644 16.452H647.144V19.68H648.644ZM658.763 17.412V24H657.671V22.452C657.503 22.988 657.203 23.4 656.771 23.688C656.347 23.968 655.851 24.108 655.283 24.108C654.523 24.108 653.907 23.864 653.435 23.376C652.963 22.88 652.727 22.172 652.727 21.252V17.412H653.819V21.144C653.819 21.8 653.987 22.308 654.323 22.668C654.659 23.02 655.115 23.196 655.691 23.196C656.291 23.196 656.771 23.004 657.131 22.62C657.491 22.228 657.671 21.66 657.671 20.916V17.412H658.763ZM662.577 17.328C663.321 17.328 663.917 17.524 664.365 17.916C664.821 18.3 665.097 18.82 665.193 19.476H664.149C664.101 19.084 663.937 18.764 663.657 18.516C663.385 18.26 663.017 18.132 662.553 18.132C662.161 18.132 661.853 18.228 661.629 18.42C661.413 18.604 661.305 18.856 661.305 19.176C661.305 19.416 661.377 19.612 661.521 19.764C661.673 19.908 661.857 20.02 662.073 20.1C662.297 20.172 662.601 20.252 662.985 20.34C663.473 20.452 663.865 20.568 664.161 20.688C664.465 20.8 664.721 20.984 664.929 21.24C665.145 21.496 665.253 21.84 665.253 22.272C665.253 22.808 665.049 23.244 664.641 23.58C664.241 23.916 663.705 24.084 663.033 24.084C662.249 24.084 661.609 23.896 661.113 23.52C660.617 23.144 660.325 22.62 660.237 21.948H661.293C661.333 22.348 661.505 22.672 661.809 22.92C662.121 23.168 662.529 23.292 663.033 23.292C663.409 23.292 663.701 23.196 663.909 23.004C664.125 22.812 664.233 22.56 664.233 22.248C664.233 21.992 664.157 21.788 664.005 21.636C663.853 21.484 663.665 21.368 663.441 21.288C663.217 21.208 662.909 21.124 662.517 21.036C662.029 20.924 661.637 20.812 661.341 20.7C661.053 20.588 660.805 20.412 660.597 20.172C660.397 19.924 660.297 19.592 660.297 19.176C660.297 18.624 660.501 18.18 660.909 17.844C661.317 17.5 661.873 17.328 662.577 17.328ZM669.412 17.328C670.052 17.328 670.592 17.488 671.032 17.808C671.48 18.128 671.792 18.556 671.968 19.092V17.412H673.06V24H671.968V22.32C671.792 22.856 671.48 23.284 671.032 23.604C670.592 23.924 670.052 24.084 669.412 24.084C668.828 24.084 668.308 23.948 667.852 23.676C667.396 23.404 667.036 23.016 666.772 22.512C666.516 22 666.388 21.4 666.388 20.712C666.388 20.024 666.516 19.424 666.772 18.912C667.036 18.4 667.396 18.008 667.852 17.736C668.308 17.464 668.828 17.328 669.412 17.328ZM669.724 18.3C669.052 18.3 668.512 18.516 668.104 18.948C667.704 19.372 667.504 19.96 667.504 20.712C667.504 21.464 667.704 22.056 668.104 22.488C668.512 22.912 669.052 23.124 669.724 23.124C670.156 23.124 670.54 23.024 670.876 22.824C671.22 22.624 671.488 22.344 671.68 21.984C671.872 21.616 671.968 21.192 671.968 20.712C671.968 20.232 671.872 19.808 671.68 19.44C671.488 19.072 671.22 18.792 670.876 18.6C670.54 18.4 670.156 18.3 669.724 18.3ZM677.942 23.04V24H677.126C676.454 24 675.95 23.84 675.614 23.52C675.286 23.2 675.122 22.664 675.122 21.912V18.36H674.138V17.412H675.122V15.768H676.226V17.412H677.93V18.36H676.226V21.936C676.226 22.36 676.302 22.652 676.454 22.812C676.614 22.964 676.886 23.04 677.27 23.04H677.942ZM683.331 15.54V24H682.239V15.54H683.331ZM688.555 17.304C689.323 17.304 689.943 17.552 690.415 18.048C690.887 18.536 691.123 19.244 691.123 20.172V24H690.031V20.268C690.031 19.612 689.863 19.108 689.527 18.756C689.191 18.404 688.735 18.228 688.159 18.228C687.559 18.228 687.079 18.424 686.719 18.816C686.359 19.2 686.179 19.764 686.179 20.508V24H685.087V17.412H686.179V18.972C686.347 18.436 686.643 18.024 687.067 17.736C687.499 17.448 687.995 17.304 688.555 17.304ZM695.714 15.852C695.13 15.844 694.722 15.944 694.49 16.152C694.266 16.36 694.154 16.72 694.154 17.232V17.412H695.714V18.372H694.154V24H693.062V18.372H692.114V17.412H693.062V17.148C693.062 15.572 693.946 14.82 695.714 14.892V15.852ZM699.887 17.328C700.519 17.328 701.083 17.464 701.579 17.736C702.083 18.008 702.475 18.4 702.755 18.912C703.043 19.424 703.187 20.024 703.187 20.712C703.187 21.4 703.043 22 702.755 22.512C702.475 23.016 702.083 23.404 701.579 23.676C701.083 23.948 700.519 24.084 699.887 24.084C699.255 24.084 698.687 23.948 698.183 23.676C697.687 23.404 697.295 23.016 697.007 22.512C696.719 22 696.575 21.4 696.575 20.712C696.575 20.024 696.719 19.424 697.007 18.912C697.295 18.4 697.687 18.008 698.183 17.736C698.687 17.464 699.255 17.328 699.887 17.328ZM699.887 18.288C699.495 18.288 699.131 18.376 698.795 18.552C698.467 18.728 698.199 19 697.991 19.368C697.791 19.728 697.691 20.176 697.691 20.712C697.691 21.24 697.791 21.688 697.991 22.056C698.199 22.416 698.467 22.684 698.795 22.86C699.131 23.036 699.495 23.124 699.887 23.124C700.279 23.124 700.639 23.036 700.967 22.86C701.303 22.684 701.571 22.416 701.771 22.056C701.979 21.688 702.083 21.24 702.083 20.712C702.083 20.176 701.979 19.728 701.771 19.368C701.571 19 701.303 18.728 700.967 18.552C700.639 18.376 700.279 18.288 699.887 18.288ZM705.702 18.744C705.918 18.288 706.234 17.936 706.65 17.688C707.066 17.432 707.562 17.304 708.138 17.304V18.492H707.802C707.186 18.492 706.682 18.652 706.29 18.972C705.898 19.284 705.702 19.804 705.702 20.532V24H704.61V17.412H705.702V18.744ZM717.316 17.304C718.084 17.304 718.7 17.552 719.164 18.048C719.636 18.536 719.872 19.244 719.872 20.172V24H718.78V20.268C718.78 19.62 718.62 19.124 718.3 18.78C717.988 18.436 717.556 18.264 717.004 18.264C716.428 18.264 715.964 18.456 715.612 18.84C715.268 19.216 715.096 19.772 715.096 20.508V24H714.004V20.268C714.004 19.62 713.844 19.124 713.524 18.78C713.204 18.436 712.772 18.264 712.228 18.264C711.644 18.264 711.176 18.456 710.824 18.84C710.48 19.216 710.308 19.772 710.308 20.508V24H709.216V17.412H710.308V18.912C710.468 18.392 710.752 17.996 711.16 17.724C711.576 17.444 712.052 17.304 712.588 17.304C713.148 17.304 713.632 17.448 714.04 17.736C714.456 18.016 714.752 18.432 714.928 18.984C715.112 18.448 715.42 18.036 715.852 17.748C716.284 17.452 716.772 17.304 717.316 17.304ZM724.267 17.328C724.907 17.328 725.447 17.488 725.887 17.808C726.335 18.128 726.647 18.556 726.823 19.092V17.412H727.915V24H726.823V22.32C726.647 22.856 726.335 23.284 725.887 23.604C725.447 23.924 724.907 24.084 724.267 24.084C723.683 24.084 723.163 23.948 722.707 23.676C722.251 23.404 721.891 23.016 721.627 22.512C721.371 22 721.243 21.4 721.243 20.712C721.243 20.024 721.371 19.424 721.627 18.912C721.891 18.4 722.251 18.008 722.707 17.736C723.163 17.464 723.683 17.328 724.267 17.328ZM724.579 18.3C723.907 18.3 723.367 18.516 722.959 18.948C722.559 19.372 722.359 19.96 722.359 20.712C722.359 21.464 722.559 22.056 722.959 22.488C723.367 22.912 723.907 23.124 724.579 23.124C725.011 23.124 725.395 23.024 725.731 22.824C726.075 22.624 726.343 22.344 726.535 21.984C726.727 21.616 726.823 21.192 726.823 20.712C726.823 20.232 726.727 19.808 726.535 19.44C726.343 19.072 726.075 18.792 725.731 18.6C725.395 18.4 725.011 18.3 724.579 18.3ZM731.717 17.328C732.461 17.328 733.057 17.524 733.505 17.916C733.961 18.3 734.237 18.82 734.333 19.476H733.289C733.241 19.084 733.077 18.764 732.797 18.516C732.525 18.26 732.157 18.132 731.693 18.132C731.301 18.132 730.993 18.228 730.769 18.42C730.553 18.604 730.445 18.856 730.445 19.176C730.445 19.416 730.517 19.612 730.661 19.764C730.813 19.908 730.997 20.02 731.213 20.1C731.437 20.172 731.741 20.252 732.125 20.34C732.613 20.452 733.005 20.568 733.301 20.688C733.605 20.8 733.861 20.984 734.069 21.24C734.285 21.496 734.393 21.84 734.393 22.272C734.393 22.808 734.189 23.244 733.781 23.58C733.381 23.916 732.845 24.084 732.173 24.084C731.389 24.084 730.749 23.896 730.253 23.52C729.757 23.144 729.465 22.62 729.377 21.948H730.433C730.473 22.348 730.645 22.672 730.949 22.92C731.261 23.168 731.669 23.292 732.173 23.292C732.549 23.292 732.841 23.196 733.049 23.004C733.265 22.812 733.373 22.56 733.373 22.248C733.373 21.992 733.297 21.788 733.145 21.636C732.993 21.484 732.805 21.368 732.581 21.288C732.357 21.208 732.049 21.124 731.657 21.036C731.169 20.924 730.777 20.812 730.481 20.7C730.193 20.588 729.945 20.412 729.737 20.172C729.537 19.924 729.437 19.592 729.437 19.176C729.437 18.624 729.641 18.18 730.049 17.844C730.457 17.5 731.013 17.328 731.717 17.328ZM735.661 15.48C735.661 15.28 735.729 15.12 735.865 15C736.001 14.872 736.181 14.808 736.405 14.808C736.629 14.808 736.809 14.872 736.945 15C737.081 15.12 737.149 15.28 737.149 15.48C737.149 15.68 737.081 15.844 736.945 15.972C736.809 16.092 736.629 16.152 736.405 16.152C736.181 16.152 736.001 16.092 735.865 15.972C735.729 15.844 735.661 15.68 735.661 15.48ZM736.945 17.412V24H735.853V17.412H736.945Z" fill="white"/>
<path d="M1031.05 16.54V17.428H1028.66V25H1027.57V17.428H1025.18V16.54H1031.05ZM1038.2 21.34C1038.2 21.572 1038.18 21.772 1038.15 21.94H1032.88C1032.9 22.692 1033.12 23.256 1033.52 23.632C1033.92 24.008 1034.42 24.196 1035 24.196C1035.53 24.196 1035.97 24.064 1036.32 23.8C1036.68 23.528 1036.9 23.168 1036.98 22.72H1038.15C1038.07 23.176 1037.89 23.584 1037.61 23.944C1037.34 24.304 1036.98 24.584 1036.54 24.784C1036.1 24.984 1035.6 25.084 1035.05 25.084C1034.42 25.084 1033.86 24.948 1033.37 24.676C1032.88 24.404 1032.5 24.016 1032.22 23.512C1031.95 23 1031.81 22.4 1031.81 21.712C1031.81 21.024 1031.95 20.424 1032.22 19.912C1032.5 19.4 1032.88 19.008 1033.37 18.736C1033.86 18.464 1034.42 18.328 1035.05 18.328C1035.69 18.328 1036.25 18.464 1036.72 18.736C1037.2 19.008 1037.56 19.372 1037.81 19.828C1038.07 20.284 1038.2 20.788 1038.2 21.34ZM1037.09 21.412C1037.12 20.924 1037.04 20.516 1036.85 20.188C1036.67 19.86 1036.42 19.616 1036.1 19.456C1035.78 19.296 1035.43 19.216 1035.05 19.216C1034.45 19.216 1033.95 19.404 1033.54 19.78C1033.13 20.148 1032.91 20.692 1032.88 21.412H1037.09ZM1043.09 18.304C1043.86 18.304 1044.48 18.552 1044.95 19.048C1045.42 19.536 1045.66 20.244 1045.66 21.172V25H1044.57V21.268C1044.57 20.612 1044.4 20.108 1044.06 19.756C1043.73 19.404 1043.27 19.228 1042.7 19.228C1042.1 19.228 1041.62 19.424 1041.26 19.816C1040.9 20.2 1040.72 20.764 1040.72 21.508V25H1039.62V18.412H1040.72V19.972C1040.88 19.436 1041.18 19.024 1041.6 18.736C1042.04 18.448 1042.53 18.304 1043.09 18.304ZM1050.48 24.04V25H1049.66C1048.99 25 1048.49 24.84 1048.15 24.52C1047.82 24.2 1047.66 23.664 1047.66 22.912V19.36H1046.67V18.412H1047.66V16.768H1048.76V18.412H1050.47V19.36H1048.76V22.936C1048.76 23.36 1048.84 23.652 1048.99 23.812C1049.15 23.964 1049.42 24.04 1049.81 24.04H1050.48ZM1054.51 18.328C1055.15 18.328 1055.69 18.488 1056.13 18.808C1056.58 19.128 1056.89 19.556 1057.07 20.092V18.412H1058.16V25H1057.07V23.32C1056.89 23.856 1056.58 24.284 1056.13 24.604C1055.69 24.924 1055.15 25.084 1054.51 25.084C1053.93 25.084 1053.41 24.948 1052.95 24.676C1052.5 24.404 1052.14 24.016 1051.87 23.512C1051.62 23 1051.49 22.4 1051.49 21.712C1051.49 21.024 1051.62 20.424 1051.87 19.912C1052.14 19.4 1052.5 19.008 1052.95 18.736C1053.41 18.464 1053.93 18.328 1054.51 18.328ZM1054.82 19.3C1054.15 19.3 1053.61 19.516 1053.2 19.948C1052.8 20.372 1052.6 20.96 1052.6 21.712C1052.6 22.464 1052.8 23.056 1053.2 23.488C1053.61 23.912 1054.15 24.124 1054.82 24.124C1055.26 24.124 1055.64 24.024 1055.98 23.824C1056.32 23.624 1056.59 23.344 1056.78 22.984C1056.97 22.616 1057.07 22.192 1057.07 21.712C1057.07 21.232 1056.97 20.808 1056.78 20.44C1056.59 20.072 1056.32 19.792 1055.98 19.6C1055.64 19.4 1055.26 19.3 1054.82 19.3ZM1063.37 18.304C1064.13 18.304 1064.75 18.552 1065.23 19.048C1065.7 19.536 1065.93 20.244 1065.93 21.172V25H1064.84V21.268C1064.84 20.612 1064.67 20.108 1064.34 19.756C1064 19.404 1063.55 19.228 1062.97 19.228C1062.37 19.228 1061.89 19.424 1061.53 19.816C1061.17 20.2 1060.99 20.764 1060.99 21.508V25H1059.9V18.412H1060.99V19.972C1061.16 19.436 1061.45 19.024 1061.88 18.736C1062.31 18.448 1062.81 18.304 1063.37 18.304ZM1070.31 18.328C1070.95 18.328 1071.49 18.488 1071.93 18.808C1072.38 19.128 1072.69 19.556 1072.86 20.092V18.412H1073.96V25.108C1073.96 25.716 1073.83 26.256 1073.57 26.728C1073.32 27.2 1072.96 27.568 1072.49 27.832C1072.03 28.096 1071.49 28.228 1070.87 28.228C1069.98 28.228 1069.26 28.012 1068.7 27.58C1068.14 27.156 1067.78 26.58 1067.63 25.852H1068.71C1068.84 26.292 1069.08 26.636 1069.43 26.884C1069.79 27.14 1070.25 27.268 1070.81 27.268C1071.4 27.268 1071.89 27.076 1072.28 26.692C1072.67 26.316 1072.86 25.788 1072.86 25.108V23.32C1072.69 23.856 1072.38 24.284 1071.93 24.604C1071.49 24.924 1070.95 25.084 1070.31 25.084C1069.72 25.084 1069.2 24.948 1068.75 24.676C1068.29 24.404 1067.93 24.016 1067.67 23.512C1067.41 23 1067.28 22.4 1067.28 21.712C1067.28 21.024 1067.41 20.424 1067.67 19.912C1067.93 19.4 1068.29 19.008 1068.75 18.736C1069.2 18.464 1069.72 18.328 1070.31 18.328ZM1070.62 19.3C1069.95 19.3 1069.41 19.516 1069 19.948C1068.6 20.372 1068.4 20.96 1068.4 21.712C1068.4 22.464 1068.6 23.056 1069 23.488C1069.41 23.912 1069.95 24.124 1070.62 24.124C1071.05 24.124 1071.44 24.024 1071.77 23.824C1072.12 23.624 1072.38 23.344 1072.58 22.984C1072.77 22.616 1072.86 22.192 1072.86 21.712C1072.86 21.232 1072.77 20.808 1072.58 20.44C1072.38 20.072 1072.12 19.792 1071.77 19.6C1071.44 19.4 1071.05 19.3 1070.62 19.3ZM1082.27 25L1079.75 22.036V25H1078.66V16.12H1079.75V21.28L1082.24 18.412H1083.57L1080.62 21.688L1083.64 25H1082.27ZM1087.3 18.328C1087.94 18.328 1088.48 18.488 1088.92 18.808C1089.37 19.128 1089.68 19.556 1089.86 20.092V18.412H1090.95V25H1089.86V23.32C1089.68 23.856 1089.37 24.284 1088.92 24.604C1088.48 24.924 1087.94 25.084 1087.3 25.084C1086.72 25.084 1086.2 24.948 1085.74 24.676C1085.28 24.404 1084.92 24.016 1084.66 23.512C1084.4 23 1084.28 22.4 1084.28 21.712C1084.28 21.024 1084.4 20.424 1084.66 19.912C1084.92 19.4 1085.28 19.008 1085.74 18.736C1086.2 18.464 1086.72 18.328 1087.3 18.328ZM1087.61 19.3C1086.94 19.3 1086.4 19.516 1085.99 19.948C1085.59 20.372 1085.39 20.96 1085.39 21.712C1085.39 22.464 1085.59 23.056 1085.99 23.488C1086.4 23.912 1086.94 24.124 1087.61 24.124C1088.04 24.124 1088.43 24.024 1088.76 23.824C1089.11 23.624 1089.38 23.344 1089.57 22.984C1089.76 22.616 1089.86 22.192 1089.86 21.712C1089.86 21.232 1089.76 20.808 1089.57 20.44C1089.38 20.072 1089.11 19.792 1088.76 19.6C1088.43 19.4 1088.04 19.3 1087.61 19.3ZM1100.79 18.304C1101.55 18.304 1102.17 18.552 1102.63 19.048C1103.11 19.536 1103.34 20.244 1103.34 21.172V25H1102.25V21.268C1102.25 20.62 1102.09 20.124 1101.77 19.78C1101.46 19.436 1101.03 19.264 1100.47 19.264C1099.9 19.264 1099.43 19.456 1099.08 19.84C1098.74 20.216 1098.57 20.772 1098.57 21.508V25H1097.47V21.268C1097.47 20.62 1097.31 20.124 1096.99 19.78C1096.67 19.436 1096.24 19.264 1095.7 19.264C1095.11 19.264 1094.65 19.456 1094.29 19.84C1093.95 20.216 1093.78 20.772 1093.78 21.508V25H1092.69V18.412H1093.78V19.912C1093.94 19.392 1094.22 18.996 1094.63 18.724C1095.05 18.444 1095.52 18.304 1096.06 18.304C1096.62 18.304 1097.1 18.448 1097.51 18.736C1097.93 19.016 1098.22 19.432 1098.4 19.984C1098.58 19.448 1098.89 19.036 1099.32 18.748C1099.75 18.452 1100.24 18.304 1100.79 18.304ZM1104.85 16.48C1104.85 16.28 1104.91 16.12 1105.05 16C1105.19 15.872 1105.37 15.808 1105.59 15.808C1105.81 15.808 1105.99 15.872 1106.13 16C1106.27 16.12 1106.33 16.28 1106.33 16.48C1106.33 16.68 1106.27 16.844 1106.13 16.972C1105.99 17.092 1105.81 17.152 1105.59 17.152C1105.37 17.152 1105.19 17.092 1105.05 16.972C1104.91 16.844 1104.85 16.68 1104.85 16.48ZM1106.13 18.412V25H1105.04V18.412H1106.13Z" fill="white"/>
<path d="M1151.05 23.044H1147.33L1146.62 25H1145.44L1148.58 16.696H1149.81L1152.93 25H1151.76L1151.05 23.044ZM1150.74 22.192L1149.19 17.92L1147.64 22.192H1150.74ZM1155.13 16.12V25H1154.04V16.12H1155.13ZM1159.59 18.328C1160.23 18.328 1160.77 18.488 1161.21 18.808C1161.65 19.128 1161.97 19.556 1162.14 20.092V18.412H1163.23V25H1162.14V23.32C1161.97 23.856 1161.65 24.284 1161.21 24.604C1160.77 24.924 1160.23 25.084 1159.59 25.084C1159 25.084 1158.48 24.948 1158.03 24.676C1157.57 24.404 1157.21 24.016 1156.95 23.512C1156.69 23 1156.56 22.4 1156.56 21.712C1156.56 21.024 1156.69 20.424 1156.95 19.912C1157.21 19.4 1157.57 19.008 1158.03 18.736C1158.48 18.464 1159 18.328 1159.59 18.328ZM1159.9 19.3C1159.23 19.3 1158.69 19.516 1158.28 19.948C1157.88 20.372 1157.68 20.96 1157.68 21.712C1157.68 22.464 1157.88 23.056 1158.28 23.488C1158.69 23.912 1159.23 24.124 1159.9 24.124C1160.33 24.124 1160.71 24.024 1161.05 23.824C1161.39 23.624 1161.66 23.344 1161.85 22.984C1162.05 22.616 1162.14 22.192 1162.14 21.712C1162.14 21.232 1162.05 20.808 1161.85 20.44C1161.66 20.072 1161.39 19.792 1161.05 19.6C1160.71 19.4 1160.33 19.3 1159.9 19.3ZM1173.07 18.304C1173.84 18.304 1174.46 18.552 1174.92 19.048C1175.39 19.536 1175.63 20.244 1175.63 21.172V25H1174.54V21.268C1174.54 20.62 1174.38 20.124 1174.06 19.78C1173.74 19.436 1173.31 19.264 1172.76 19.264C1172.18 19.264 1171.72 19.456 1171.37 19.84C1171.02 20.216 1170.85 20.772 1170.85 21.508V25H1169.76V21.268C1169.76 20.62 1169.6 20.124 1169.28 19.78C1168.96 19.436 1168.53 19.264 1167.98 19.264C1167.4 19.264 1166.93 19.456 1166.58 19.84C1166.24 20.216 1166.06 20.772 1166.06 21.508V25H1164.97V18.412H1166.06V19.912C1166.22 19.392 1166.51 18.996 1166.92 18.724C1167.33 18.444 1167.81 18.304 1168.34 18.304C1168.9 18.304 1169.39 18.448 1169.8 18.736C1170.21 19.016 1170.51 19.432 1170.68 19.984C1170.87 19.448 1171.18 19.036 1171.61 18.748C1172.04 18.452 1172.53 18.304 1173.07 18.304ZM1180.02 18.328C1180.66 18.328 1181.2 18.488 1181.64 18.808C1182.09 19.128 1182.4 19.556 1182.58 20.092V18.412H1183.67V25H1182.58V23.32C1182.4 23.856 1182.09 24.284 1181.64 24.604C1181.2 24.924 1180.66 25.084 1180.02 25.084C1179.44 25.084 1178.92 24.948 1178.46 24.676C1178.01 24.404 1177.65 24.016 1177.38 23.512C1177.13 23 1177 22.4 1177 21.712C1177 21.024 1177.13 20.424 1177.38 19.912C1177.65 19.4 1178.01 19.008 1178.46 18.736C1178.92 18.464 1179.44 18.328 1180.02 18.328ZM1180.34 19.3C1179.66 19.3 1179.12 19.516 1178.72 19.948C1178.32 20.372 1178.12 20.96 1178.12 21.712C1178.12 22.464 1178.32 23.056 1178.72 23.488C1179.12 23.912 1179.66 24.124 1180.34 24.124C1180.77 24.124 1181.15 24.024 1181.49 23.824C1181.83 23.624 1182.1 23.344 1182.29 22.984C1182.48 22.616 1182.58 22.192 1182.58 21.712C1182.58 21.232 1182.48 20.808 1182.29 20.44C1182.1 20.072 1181.83 19.792 1181.49 19.6C1181.15 19.4 1180.77 19.3 1180.34 19.3ZM1188.55 24.04V25H1187.74C1187.07 25 1186.56 24.84 1186.23 24.52C1185.9 24.2 1185.73 23.664 1185.73 22.912V19.36H1184.75V18.412H1185.73V16.768H1186.84V18.412H1188.54V19.36H1186.84V22.936C1186.84 23.36 1186.91 23.652 1187.07 23.812C1187.23 23.964 1187.5 24.04 1187.88 24.04H1188.55ZM1196.98 20.62C1197.5 20.732 1197.92 20.98 1198.24 21.364C1198.57 21.748 1198.73 22.2 1198.73 22.72C1198.73 23.408 1198.49 23.96 1198.02 24.376C1197.56 24.792 1196.88 25 1195.99 25H1192.85V16.54H1195.95C1196.79 16.54 1197.44 16.728 1197.88 17.104C1198.32 17.48 1198.54 17.996 1198.54 18.652C1198.54 19.196 1198.39 19.636 1198.09 19.972C1197.81 20.308 1197.43 20.524 1196.98 20.62ZM1193.94 20.248H1195.77C1196.3 20.248 1196.71 20.124 1196.99 19.876C1197.28 19.628 1197.42 19.28 1197.42 18.832C1197.42 18.4 1197.28 18.06 1197 17.812C1196.72 17.564 1196.29 17.44 1195.72 17.44H1193.94V20.248ZM1195.79 24.088C1196.37 24.088 1196.81 23.956 1197.12 23.692C1197.44 23.428 1197.6 23.056 1197.6 22.576C1197.6 22.104 1197.44 21.736 1197.11 21.472C1196.79 21.2 1196.34 21.064 1195.77 21.064H1193.94V24.088H1195.79ZM1201.18 21.592V25H1200.09V16.54H1202.78C1203.75 16.54 1204.47 16.768 1204.95 17.224C1205.43 17.672 1205.67 18.288 1205.67 19.072C1205.67 19.864 1205.42 20.484 1204.93 20.932C1204.43 21.372 1203.72 21.592 1202.78 21.592H1201.18ZM1202.68 20.68C1203.35 20.68 1203.82 20.54 1204.11 20.26C1204.41 19.98 1204.56 19.584 1204.56 19.072C1204.56 18.544 1204.41 18.144 1204.11 17.872C1203.82 17.592 1203.35 17.452 1202.68 17.452H1201.18V20.68H1202.68ZM1210.82 16.432C1211.61 16.432 1212.31 16.616 1212.94 16.984C1213.57 17.352 1214.06 17.868 1214.42 18.532C1214.78 19.188 1214.96 19.932 1214.96 20.764C1214.96 21.596 1214.78 22.344 1214.42 23.008C1214.06 23.664 1213.57 24.176 1212.94 24.544C1212.31 24.912 1211.61 25.096 1210.82 25.096C1210.04 25.096 1209.33 24.912 1208.69 24.544C1208.06 24.176 1207.56 23.664 1207.2 23.008C1206.84 22.344 1206.66 21.596 1206.66 20.764C1206.66 19.932 1206.84 19.188 1207.2 18.532C1207.56 17.868 1208.06 17.352 1208.69 16.984C1209.33 16.616 1210.04 16.432 1210.82 16.432ZM1210.82 17.452C1210.24 17.452 1209.72 17.588 1209.25 17.86C1208.8 18.124 1208.44 18.508 1208.17 19.012C1207.92 19.508 1207.79 20.092 1207.79 20.764C1207.79 21.428 1207.92 22.012 1208.17 22.516C1208.44 23.02 1208.8 23.408 1209.25 23.68C1209.72 23.944 1210.24 24.076 1210.82 24.076C1211.4 24.076 1211.92 23.94 1212.37 23.668C1212.84 23.396 1213.2 23.012 1213.45 22.516C1213.72 22.012 1213.85 21.428 1213.85 20.764C1213.85 20.092 1213.72 19.508 1213.45 19.012C1213.2 18.508 1212.84 18.124 1212.37 17.86C1211.92 17.588 1211.4 17.452 1210.82 17.452ZM1224.91 16.684V25H1223.82V18.364L1221.17 25H1220.2L1217.53 18.388V25H1216.44V16.684H1217.75L1220.7 23.668L1223.6 16.684H1224.91Z" fill="white"/>
<path d="M129.409 15.54V24H128.305V20.088H124.009V24H122.917V15.54H124.009V19.2H128.305V15.54H129.409ZM133.855 17.328C134.495 17.328 135.035 17.488 135.475 17.808C135.923 18.128 136.235 18.556 136.411 19.092V17.412H137.503V24H136.411V22.32C136.235 22.856 135.923 23.284 135.475 23.604C135.035 23.924 134.495 24.084 133.855 24.084C133.271 24.084 132.751 23.948 132.295 23.676C131.839 23.404 131.479 23.016 131.215 22.512C130.959 22 130.831 21.4 130.831 20.712C130.831 20.024 130.959 19.424 131.215 18.912C131.479 18.4 131.839 18.008 132.295 17.736C132.751 17.464 133.271 17.328 133.855 17.328ZM134.167 18.3C133.495 18.3 132.955 18.516 132.547 18.948C132.147 19.372 131.947 19.96 131.947 20.712C131.947 21.464 132.147 22.056 132.547 22.488C132.955 22.912 133.495 23.124 134.167 23.124C134.599 23.124 134.983 23.024 135.319 22.824C135.663 22.624 135.931 22.344 136.123 21.984C136.315 21.616 136.411 21.192 136.411 20.712C136.411 20.232 136.315 19.808 136.123 19.44C135.931 19.072 135.663 18.792 135.319 18.6C134.983 18.4 134.599 18.3 134.167 18.3ZM140.333 15.12V24H139.241V15.12H140.333ZM145.077 17.328C145.709 17.328 146.273 17.464 146.769 17.736C147.273 18.008 147.665 18.4 147.945 18.912C148.233 19.424 148.377 20.024 148.377 20.712C148.377 21.4 148.233 22 147.945 22.512C147.665 23.016 147.273 23.404 146.769 23.676C146.273 23.948 145.709 24.084 145.077 24.084C144.445 24.084 143.877 23.948 143.373 23.676C142.877 23.404 142.485 23.016 142.197 22.512C141.909 22 141.765 21.4 141.765 20.712C141.765 20.024 141.909 19.424 142.197 18.912C142.485 18.4 142.877 18.008 143.373 17.736C143.877 17.464 144.445 17.328 145.077 17.328ZM145.077 18.288C144.685 18.288 144.321 18.376 143.985 18.552C143.657 18.728 143.389 19 143.181 19.368C142.981 19.728 142.881 20.176 142.881 20.712C142.881 21.24 142.981 21.688 143.181 22.056C143.389 22.416 143.657 22.684 143.985 22.86C144.321 23.036 144.685 23.124 145.077 23.124C145.469 23.124 145.829 23.036 146.157 22.86C146.493 22.684 146.761 22.416 146.961 22.056C147.169 21.688 147.273 21.24 147.273 20.712C147.273 20.176 147.169 19.728 146.961 19.368C146.761 19 146.493 18.728 146.157 18.552C145.829 18.376 145.469 18.288 145.077 18.288ZM156.893 19.62C157.413 19.732 157.833 19.98 158.153 20.364C158.481 20.748 158.645 21.2 158.645 21.72C158.645 22.408 158.409 22.96 157.937 23.376C157.473 23.792 156.797 24 155.909 24H152.765V15.54H155.861C156.709 15.54 157.353 15.728 157.793 16.104C158.233 16.48 158.453 16.996 158.453 17.652C158.453 18.196 158.305 18.636 158.009 18.972C157.721 19.308 157.349 19.524 156.893 19.62ZM153.857 19.248H155.681C156.217 19.248 156.625 19.124 156.905 18.876C157.193 18.628 157.337 18.28 157.337 17.832C157.337 17.4 157.197 17.06 156.917 16.812C156.637 16.564 156.209 16.44 155.633 16.44H153.857V19.248ZM155.705 23.088C156.281 23.088 156.725 22.956 157.037 22.692C157.357 22.428 157.517 22.056 157.517 21.576C157.517 21.104 157.353 20.736 157.025 20.472C156.705 20.2 156.257 20.064 155.681 20.064H153.857V23.088H155.705ZM161.099 20.592V24H160.007V15.54H162.695C163.663 15.54 164.387 15.768 164.867 16.224C165.347 16.672 165.587 17.288 165.587 18.072C165.587 18.864 165.339 19.484 164.843 19.932C164.347 20.372 163.631 20.592 162.695 20.592H161.099ZM162.599 19.68C163.263 19.68 163.739 19.54 164.027 19.26C164.323 18.98 164.471 18.584 164.471 18.072C164.471 17.544 164.323 17.144 164.027 16.872C163.739 16.592 163.263 16.452 162.599 16.452H161.099V19.68H162.599ZM170.738 15.432C171.522 15.432 172.226 15.616 172.85 15.984C173.482 16.352 173.978 16.868 174.338 17.532C174.698 18.188 174.878 18.932 174.878 19.764C174.878 20.596 174.698 21.344 174.338 22.008C173.978 22.664 173.482 23.176 172.85 23.544C172.226 23.912 171.522 24.096 170.738 24.096C169.954 24.096 169.242 23.912 168.602 23.544C167.97 23.176 167.474 22.664 167.114 22.008C166.754 21.344 166.574 20.596 166.574 19.764C166.574 18.932 166.754 18.188 167.114 17.532C167.474 16.868 167.97 16.352 168.602 15.984C169.242 15.616 169.954 15.432 170.738 15.432ZM170.738 16.452C170.154 16.452 169.63 16.588 169.166 16.86C168.71 17.124 168.35 17.508 168.086 18.012C167.83 18.508 167.702 19.092 167.702 19.764C167.702 20.428 167.83 21.012 168.086 21.516C168.35 22.02 168.71 22.408 169.166 22.68C169.63 22.944 170.154 23.076 170.738 23.076C171.314 23.076 171.83 22.94 172.286 22.668C172.75 22.396 173.11 22.012 173.366 21.516C173.63 21.012 173.762 20.428 173.762 19.764C173.762 19.092 173.63 18.508 173.366 18.012C173.11 17.508 172.75 17.124 172.286 16.86C171.83 16.588 171.314 16.452 170.738 16.452ZM184.827 15.684V24H183.735V17.364L181.083 24H180.111L177.447 17.388V24H176.355V15.684H177.663L180.615 22.668L183.519 15.684H184.827ZM190.486 17.532V18.816H189.166V17.532H190.486ZM190.486 22.716V24H189.166V22.716H190.486Z" fill="white"/>
<path d="M195.635 16.56V15.54H198.059V24H196.907V16.56H195.635ZM205.308 16.404H200.964V19.236C201.164 18.964 201.452 18.748 201.828 18.588C202.204 18.428 202.616 18.348 203.064 18.348C203.664 18.348 204.16 18.476 204.552 18.732C204.952 18.98 205.244 19.312 205.428 19.728C205.62 20.136 205.716 20.592 205.716 21.096C205.716 21.968 205.472 22.68 204.984 23.232C204.496 23.784 203.78 24.06 202.836 24.06C201.988 24.06 201.296 23.832 200.76 23.376C200.224 22.912 199.924 22.292 199.86 21.516H200.94C201.028 22.012 201.232 22.4 201.552 22.68C201.88 22.952 202.292 23.088 202.788 23.088C203.404 23.088 203.868 22.904 204.18 22.536C204.492 22.168 204.648 21.684 204.648 21.084C204.648 20.5 204.488 20.044 204.168 19.716C203.848 19.388 203.396 19.224 202.812 19.224C202.396 19.224 202.032 19.316 201.72 19.5C201.408 19.676 201.172 19.916 201.012 20.22H199.956V15.432H205.308V16.404ZM207.002 19.716C207.002 21.076 207.226 22.136 207.674 22.896C208.122 23.656 208.898 24.036 210.002 24.036C211.106 24.036 211.882 23.656 212.33 22.896C212.786 22.136 213.014 21.076 213.014 19.716C213.014 18.372 212.786 17.32 212.33 16.56C211.882 15.8 211.106 15.42 210.002 15.42C208.898 15.42 208.122 15.8 207.674 16.56C207.226 17.312 207.002 18.364 207.002 19.716ZM211.934 19.716C211.934 20.412 211.882 20.996 211.778 21.468C211.682 21.932 211.494 22.304 211.214 22.584C210.934 22.864 210.53 23.004 210.002 23.004C209.482 23.004 209.082 22.864 208.802 22.584C208.522 22.304 208.33 21.932 208.226 21.468C208.13 20.996 208.082 20.412 208.082 19.716C208.082 19.028 208.13 18.452 208.226 17.988C208.33 17.524 208.522 17.156 208.802 16.884C209.082 16.604 209.482 16.464 210.002 16.464C210.53 16.464 210.934 16.604 211.214 16.884C211.494 17.156 211.682 17.524 211.778 17.988C211.882 18.452 211.934 19.028 211.934 19.716ZM214.373 19.716C214.373 21.076 214.597 22.136 215.045 22.896C215.493 23.656 216.269 24.036 217.373 24.036C218.477 24.036 219.253 23.656 219.701 22.896C220.157 22.136 220.385 21.076 220.385 19.716C220.385 18.372 220.157 17.32 219.701 16.56C219.253 15.8 218.477 15.42 217.373 15.42C216.269 15.42 215.493 15.8 215.045 16.56C214.597 17.312 214.373 18.364 214.373 19.716ZM219.305 19.716C219.305 20.412 219.253 20.996 219.149 21.468C219.053 21.932 218.865 22.304 218.585 22.584C218.305 22.864 217.901 23.004 217.373 23.004C216.853 23.004 216.453 22.864 216.173 22.584C215.893 22.304 215.701 21.932 215.597 21.468C215.501 20.996 215.453 20.412 215.453 19.716C215.453 19.028 215.501 18.452 215.597 17.988C215.701 17.524 215.893 17.156 216.173 16.884C216.453 16.604 216.853 16.464 217.373 16.464C217.901 16.464 218.305 16.604 218.585 16.884C218.865 17.156 219.053 17.524 219.149 17.988C219.253 18.452 219.305 19.028 219.305 19.716ZM227.445 16.404H223.101V19.236C223.301 18.964 223.589 18.748 223.965 18.588C224.341 18.428 224.753 18.348 225.201 18.348C225.801 18.348 226.297 18.476 226.689 18.732C227.089 18.98 227.381 19.312 227.565 19.728C227.757 20.136 227.853 20.592 227.853 21.096C227.853 21.968 227.609 22.68 227.121 23.232C226.633 23.784 225.917 24.06 224.973 24.06C224.125 24.06 223.433 23.832 222.897 23.376C222.361 22.912 222.061 22.292 221.997 21.516H223.077C223.165 22.012 223.369 22.4 223.689 22.68C224.017 22.952 224.429 23.088 224.925 23.088C225.541 23.088 226.005 22.904 226.317 22.536C226.629 22.168 226.785 21.684 226.785 21.084C226.785 20.5 226.625 20.044 226.305 19.716C225.985 19.388 225.533 19.224 224.949 19.224C224.533 19.224 224.169 19.316 223.857 19.5C223.545 19.676 223.309 19.916 223.149 20.22H222.093V15.432H227.445V16.404ZM232.043 15.312C232.587 15.312 233.055 15.408 233.447 15.6C233.839 15.792 234.135 16.056 234.335 16.392C234.535 16.728 234.635 17.108 234.635 17.532C234.635 18.06 234.479 18.504 234.167 18.864C233.863 19.224 233.415 19.44 232.823 19.512V19.584C233.439 19.744 233.919 19.992 234.263 20.328C234.615 20.664 234.791 21.128 234.791 21.72C234.791 22.416 234.559 22.984 234.095 23.424C233.631 23.864 232.963 24.084 232.091 24.084C231.219 24.084 230.511 23.86 229.967 23.412C229.431 22.956 229.115 22.292 229.019 21.42H230.099C230.171 21.948 230.371 22.368 230.699 22.68C231.035 22.992 231.487 23.148 232.055 23.148C232.591 23.148 233.003 23.012 233.291 22.74C233.579 22.46 233.723 22.1 233.723 21.66C233.723 21.132 233.515 20.732 233.099 20.46C232.691 20.18 232.107 20.04 231.347 20.04H231.059V19.128H231.347C232.819 19.128 233.555 18.636 233.555 17.652C233.555 17.22 233.419 16.876 233.147 16.62C232.875 16.364 232.499 16.236 232.019 16.236C231.539 16.236 231.135 16.376 230.807 16.656C230.479 16.928 230.287 17.332 230.231 17.868H229.163C229.219 17.068 229.495 16.444 229.991 15.996C230.495 15.54 231.179 15.312 232.043 15.312Z" fill="white"/>
<path d="M114.666 23.28V25.28C114.667 25.4657 114.629 25.6494 114.555 25.8195C114.48 25.9897 114.371 26.1424 114.235 26.2679C114.098 26.3934 113.936 26.489 113.76 26.5485C113.584 26.6079 113.398 26.63 113.213 26.6133C111.162 26.3904 109.191 25.6894 107.46 24.5666C105.849 23.5431 104.483 22.1774 103.46 20.5666C102.333 18.8275 101.632 16.8473 101.413 14.7866C101.396 14.6023 101.418 14.4165 101.477 14.2411C101.537 14.0656 101.632 13.9044 101.756 13.7677C101.881 13.631 102.033 13.5218 102.202 13.447C102.372 13.3722 102.555 13.3335 102.74 13.3333H104.74C105.063 13.3301 105.377 13.4447 105.622 13.6557C105.868 13.8666 106.028 14.1596 106.073 14.48C106.158 15.12 106.314 15.7485 106.54 16.3533C106.629 16.5919 106.649 16.8513 106.596 17.1006C106.543 17.3499 106.419 17.5787 106.24 17.76L105.393 18.6066C106.342 20.2757 107.724 21.6576 109.393 22.6066L110.24 21.76C110.421 21.5807 110.65 21.4572 110.899 21.404C111.149 21.3509 111.408 21.3703 111.646 21.46C112.251 21.6857 112.88 21.8422 113.52 21.9266C113.844 21.9723 114.139 22.1355 114.351 22.385C114.562 22.6345 114.675 22.953 114.666 23.28Z" stroke="white" stroke-opacity="0.32" stroke-width="1.5" stroke-linecap="round" stroke-linejoin="round"/>
<path d="M291.715 17.304C292.483 17.304 293.103 17.552 293.575 18.048C294.047 18.536 294.283 19.244 294.283 20.172V24H293.191V20.268C293.191 19.612 293.023 19.108 292.687 18.756C292.351 18.404 291.895 18.228 291.319 18.228C290.719 18.228 290.239 18.424 289.879 18.816C289.519 19.2 289.339 19.764 289.339 20.508V24H288.247V15.12H289.339V18.972C289.507 18.436 289.803 18.024 290.227 17.736C290.659 17.448 291.155 17.304 291.715 17.304ZM298.658 17.328C299.298 17.328 299.838 17.488 300.278 17.808C300.726 18.128 301.038 18.556 301.214 19.092V17.412H302.306V24H301.214V22.32C301.038 22.856 300.726 23.284 300.278 23.604C299.838 23.924 299.298 24.084 298.658 24.084C298.074 24.084 297.554 23.948 297.098 23.676C296.642 23.404 296.282 23.016 296.018 22.512C295.762 22 295.634 21.4 295.634 20.712C295.634 20.024 295.762 19.424 296.018 18.912C296.282 18.4 296.642 18.008 297.098 17.736C297.554 17.464 298.074 17.328 298.658 17.328ZM298.97 18.3C298.298 18.3 297.758 18.516 297.35 18.948C296.95 19.372 296.75 19.96 296.75 20.712C296.75 21.464 296.95 22.056 297.35 22.488C297.758 22.912 298.298 23.124 298.97 23.124C299.402 23.124 299.786 23.024 300.122 22.824C300.466 22.624 300.734 22.344 300.926 21.984C301.118 21.616 301.214 21.192 301.214 20.712C301.214 20.232 301.118 19.808 300.926 19.44C300.734 19.072 300.466 18.792 300.122 18.6C299.786 18.4 299.402 18.3 298.97 18.3ZM305.136 15.12V24H304.044V15.12H305.136ZM309.88 17.328C310.512 17.328 311.076 17.464 311.572 17.736C312.076 18.008 312.468 18.4 312.748 18.912C313.036 19.424 313.18 20.024 313.18 20.712C313.18 21.4 313.036 22 312.748 22.512C312.468 23.016 312.076 23.404 311.572 23.676C311.076 23.948 310.512 24.084 309.88 24.084C309.248 24.084 308.68 23.948 308.176 23.676C307.68 23.404 307.288 23.016 307 22.512C306.712 22 306.568 21.4 306.568 20.712C306.568 20.024 306.712 19.424 307 18.912C307.288 18.4 307.68 18.008 308.176 17.736C308.68 17.464 309.248 17.328 309.88 17.328ZM309.88 18.288C309.488 18.288 309.124 18.376 308.788 18.552C308.46 18.728 308.192 19 307.984 19.368C307.784 19.728 307.684 20.176 307.684 20.712C307.684 21.24 307.784 21.688 307.984 22.056C308.192 22.416 308.46 22.684 308.788 22.86C309.124 23.036 309.488 23.124 309.88 23.124C310.272 23.124 310.632 23.036 310.96 22.86C311.296 22.684 311.564 22.416 311.764 22.056C311.972 21.688 312.076 21.24 312.076 20.712C312.076 20.176 311.972 19.728 311.764 19.368C311.564 19 311.296 18.728 310.96 18.552C310.632 18.376 310.272 18.288 309.88 18.288ZM318.239 17.328C318.823 17.328 319.343 17.464 319.799 17.736C320.255 18.008 320.611 18.4 320.867 18.912C321.131 19.424 321.263 20.024 321.263 20.712C321.263 21.4 321.131 22 320.867 22.512C320.611 23.016 320.255 23.404 319.799 23.676C319.343 23.948 318.823 24.084 318.239 24.084C317.599 24.084 317.055 23.924 316.607 23.604C316.167 23.276 315.863 22.848 315.695 22.32V24H314.603V15.12H315.695V19.092C315.863 18.564 316.167 18.14 316.607 17.82C317.055 17.492 317.599 17.328 318.239 17.328ZM317.927 18.3C317.503 18.3 317.119 18.4 316.775 18.6C316.431 18.792 316.163 19.072 315.971 19.44C315.779 19.808 315.683 20.232 315.683 20.712C315.683 21.192 315.779 21.616 315.971 21.984C316.163 22.344 316.431 22.624 316.775 22.824C317.119 23.024 317.503 23.124 317.927 23.124C318.607 23.124 319.147 22.912 319.547 22.488C319.955 22.056 320.159 21.464 320.159 20.712C320.159 19.96 319.955 19.372 319.547 18.948C319.147 18.516 318.607 18.3 317.927 18.3ZM326.325 17.328C326.909 17.328 327.429 17.464 327.885 17.736C328.341 18.008 328.697 18.4 328.953 18.912C329.217 19.424 329.349 20.024 329.349 20.712C329.349 21.4 329.217 22 328.953 22.512C328.697 23.016 328.341 23.404 327.885 23.676C327.429 23.948 326.909 24.084 326.325 24.084C325.685 24.084 325.141 23.924 324.693 23.604C324.253 23.276 323.949 22.848 323.781 22.32V27.12H322.689V17.412H323.781V19.092C323.949 18.564 324.253 18.14 324.693 17.82C325.141 17.492 325.685 17.328 326.325 17.328ZM326.013 18.3C325.589 18.3 325.205 18.4 324.861 18.6C324.517 18.792 324.249 19.072 324.057 19.44C323.865 19.808 323.769 20.232 323.769 20.712C323.769 21.192 323.865 21.616 324.057 21.984C324.249 22.344 324.517 22.624 324.861 22.824C325.205 23.024 325.589 23.124 326.013 23.124C326.693 23.124 327.233 22.912 327.633 22.488C328.041 22.056 328.245 21.464 328.245 20.712C328.245 19.96 328.041 19.372 327.633 18.948C327.233 18.516 326.693 18.3 326.013 18.3ZM333.762 17.328C334.394 17.328 334.958 17.464 335.454 17.736C335.958 18.008 336.35 18.4 336.63 18.912C336.918 19.424 337.062 20.024 337.062 20.712C337.062 21.4 336.918 22 336.63 22.512C336.35 23.016 335.958 23.404 335.454 23.676C334.958 23.948 334.394 24.084 333.762 24.084C333.13 24.084 332.562 23.948 332.058 23.676C331.562 23.404 331.17 23.016 330.882 22.512C330.594 22 330.45 21.4 330.45 20.712C330.45 20.024 330.594 19.424 330.882 18.912C331.17 18.4 331.562 18.008 332.058 17.736C332.562 17.464 333.13 17.328 333.762 17.328ZM333.762 18.288C333.37 18.288 333.006 18.376 332.67 18.552C332.342 18.728 332.074 19 331.866 19.368C331.666 19.728 331.566 20.176 331.566 20.712C331.566 21.24 331.666 21.688 331.866 22.056C332.074 22.416 332.342 22.684 332.67 22.86C333.006 23.036 333.37 23.124 333.762 23.124C334.154 23.124 334.514 23.036 334.842 22.86C335.178 22.684 335.446 22.416 335.646 22.056C335.854 21.688 335.958 21.24 335.958 20.712C335.958 20.176 335.854 19.728 335.646 19.368C335.446 19 335.178 18.728 334.842 18.552C334.514 18.376 334.154 18.288 333.762 18.288ZM346.585 17.304C347.353 17.304 347.969 17.552 348.433 18.048C348.905 18.536 349.141 19.244 349.141 20.172V24H348.049V20.268C348.049 19.62 347.889 19.124 347.569 18.78C347.257 18.436 346.825 18.264 346.273 18.264C345.697 18.264 345.233 18.456 344.881 18.84C344.537 19.216 344.365 19.772 344.365 20.508V24H343.273V20.268C343.273 19.62 343.113 19.124 342.793 18.78C342.473 18.436 342.041 18.264 341.497 18.264C340.913 18.264 340.445 18.456 340.093 18.84C339.749 19.216 339.577 19.772 339.577 20.508V24H338.485V17.412H339.577V18.912C339.737 18.392 340.021 17.996 340.429 17.724C340.845 17.444 341.321 17.304 341.857 17.304C342.417 17.304 342.901 17.448 343.309 17.736C343.725 18.016 344.021 18.432 344.197 18.984C344.381 18.448 344.689 18.036 345.121 17.748C345.553 17.452 346.041 17.304 346.585 17.304ZM357.413 14.532C358.629 14.532 359.669 14.756 360.533 15.204C361.397 15.644 362.053 16.272 362.501 17.088C362.949 17.904 363.173 18.86 363.173 19.956C363.173 20.732 363.037 21.44 362.765 22.08C362.493 22.712 362.129 23.212 361.673 23.58C361.217 23.94 360.725 24.12 360.197 24.12C359.709 24.12 359.325 23.996 359.045 23.748C358.773 23.492 358.653 23.08 358.685 22.512C358.093 23.584 357.233 24.12 356.105 24.12C355.609 24.12 355.165 24 354.773 23.76C354.389 23.52 354.089 23.184 353.873 22.752C353.657 22.312 353.549 21.804 353.549 21.228C353.549 20.484 353.705 19.816 354.017 19.224C354.329 18.624 354.753 18.156 355.289 17.82C355.833 17.476 356.437 17.304 357.101 17.304C357.685 17.304 358.189 17.42 358.613 17.652C359.037 17.884 359.357 18.204 359.573 18.612C359.797 19.02 359.909 19.484 359.909 20.004C359.909 20.132 359.893 20.324 359.861 20.58L359.597 22.176C359.581 22.336 359.573 22.44 359.573 22.488C359.573 22.736 359.633 22.912 359.753 23.016C359.873 23.112 360.045 23.16 360.269 23.16C360.581 23.16 360.873 23.036 361.145 22.788C361.425 22.532 361.645 22.164 361.805 21.684C361.973 21.204 362.057 20.64 362.057 19.992C362.057 19.08 361.873 18.284 361.505 17.604C361.137 16.924 360.593 16.396 359.873 16.02C359.161 15.636 358.293 15.444 357.269 15.444C356.093 15.444 355.077 15.7 354.221 16.212C353.373 16.716 352.725 17.408 352.277 18.288C351.837 19.16 351.617 20.14 351.617 21.228C351.617 22.828 352.065 24.044 352.961 24.876C353.865 25.716 355.145 26.144 356.801 26.16L356.597 27.06C354.677 27.028 353.185 26.512 352.121 25.512C351.065 24.52 350.537 23.092 350.537 21.228C350.537 19.964 350.825 18.824 351.401 17.808C351.977 16.784 352.785 15.984 353.825 15.408C354.873 14.824 356.069 14.532 357.413 14.532ZM356.441 23.16C356.873 23.16 357.269 23.044 357.629 22.812C357.989 22.572 358.277 22.232 358.493 21.792C358.709 21.344 358.817 20.824 358.817 20.232C358.817 19.624 358.653 19.148 358.325 18.804C357.997 18.452 357.533 18.276 356.933 18.276C356.493 18.276 356.093 18.392 355.733 18.624C355.381 18.856 355.105 19.184 354.905 19.608C354.705 20.032 354.605 20.524 354.605 21.084C354.605 21.7 354.773 22.2 355.109 22.584C355.445 22.968 355.889 23.16 356.441 23.16ZM368.16 17.328C368.744 17.328 369.264 17.464 369.72 17.736C370.176 18.008 370.532 18.4 370.788 18.912C371.052 19.424 371.184 20.024 371.184 20.712C371.184 21.4 371.052 22 370.788 22.512C370.532 23.016 370.176 23.404 369.72 23.676C369.264 23.948 368.744 24.084 368.16 24.084C367.52 24.084 366.976 23.924 366.528 23.604C366.088 23.276 365.784 22.848 365.616 22.32V27.12H364.524V17.412H365.616V19.092C365.784 18.564 366.088 18.14 366.528 17.82C366.976 17.492 367.52 17.328 368.16 17.328ZM367.848 18.3C367.424 18.3 367.04 18.4 366.696 18.6C366.352 18.792 366.084 19.072 365.892 19.44C365.7 19.808 365.604 20.232 365.604 20.712C365.604 21.192 365.7 21.616 365.892 21.984C366.084 22.344 366.352 22.624 366.696 22.824C367.04 23.024 367.424 23.124 367.848 23.124C368.528 23.124 369.068 22.912 369.468 22.488C369.876 22.056 370.08 21.464 370.08 20.712C370.08 19.96 369.876 19.372 369.468 18.948C369.068 18.516 368.528 18.3 367.848 18.3ZM375.598 17.328C376.23 17.328 376.794 17.464 377.29 17.736C377.794 18.008 378.186 18.4 378.466 18.912C378.754 19.424 378.898 20.024 378.898 20.712C378.898 21.4 378.754 22 378.466 22.512C378.186 23.016 377.794 23.404 377.29 23.676C376.794 23.948 376.23 24.084 375.598 24.084C374.966 24.084 374.398 23.948 373.894 23.676C373.398 23.404 373.006 23.016 372.718 22.512C372.43 22 372.286 21.4 372.286 20.712C372.286 20.024 372.43 19.424 372.718 18.912C373.006 18.4 373.398 18.008 373.894 17.736C374.398 17.464 374.966 17.328 375.598 17.328ZM375.598 18.288C375.206 18.288 374.842 18.376 374.506 18.552C374.178 18.728 373.91 19 373.702 19.368C373.502 19.728 373.402 20.176 373.402 20.712C373.402 21.24 373.502 21.688 373.702 22.056C373.91 22.416 374.178 22.684 374.506 22.86C374.842 23.036 375.206 23.124 375.598 23.124C375.99 23.124 376.35 23.036 376.678 22.86C377.014 22.684 377.282 22.416 377.482 22.056C377.69 21.688 377.794 21.24 377.794 20.712C377.794 20.176 377.69 19.728 377.482 19.368C377.282 19 377.014 18.728 376.678 18.552C376.35 18.376 375.99 18.288 375.598 18.288ZM388.421 17.304C389.189 17.304 389.805 17.552 390.269 18.048C390.741 18.536 390.977 19.244 390.977 20.172V24H389.885V20.268C389.885 19.62 389.725 19.124 389.405 18.78C389.093 18.436 388.661 18.264 388.109 18.264C387.533 18.264 387.069 18.456 386.717 18.84C386.373 19.216 386.201 19.772 386.201 20.508V24H385.109V20.268C385.109 19.62 384.949 19.124 384.629 18.78C384.309 18.436 383.877 18.264 383.333 18.264C382.749 18.264 382.281 18.456 381.929 18.84C381.585 19.216 381.413 19.772 381.413 20.508V24H380.321V17.412H381.413V18.912C381.573 18.392 381.857 17.996 382.265 17.724C382.681 17.444 383.157 17.304 383.693 17.304C384.253 17.304 384.737 17.448 385.145 17.736C385.561 18.016 385.857 18.432 386.033 18.984C386.217 18.448 386.525 18.036 386.957 17.748C387.389 17.452 387.877 17.304 388.421 17.304ZM393.477 22.716V24H392.157V22.716H393.477ZM397.424 17.328C398.064 17.328 398.604 17.488 399.044 17.808C399.492 18.128 399.804 18.556 399.98 19.092V17.412H401.072V24.108C401.072 24.716 400.944 25.256 400.688 25.728C400.432 26.2 400.072 26.568 399.608 26.832C399.144 27.096 398.604 27.228 397.988 27.228C397.1 27.228 396.376 27.012 395.816 26.58C395.256 26.156 394.9 25.58 394.748 24.852H395.828C395.956 25.292 396.196 25.636 396.548 25.884C396.908 26.14 397.368 26.268 397.928 26.268C398.52 26.268 399.008 26.076 399.392 25.692C399.784 25.316 399.98 24.788 399.98 24.108V22.32C399.804 22.856 399.492 23.284 399.044 23.604C398.604 23.924 398.064 24.084 397.424 24.084C396.84 24.084 396.32 23.948 395.864 23.676C395.408 23.404 395.048 23.016 394.784 22.512C394.528 22 394.4 21.4 394.4 20.712C394.4 20.024 394.528 19.424 394.784 18.912C395.048 18.4 395.408 18.008 395.864 17.736C396.32 17.464 396.84 17.328 397.424 17.328ZM397.736 18.3C397.064 18.3 396.524 18.516 396.116 18.948C395.716 19.372 395.516 19.96 395.516 20.712C395.516 21.464 395.716 22.056 396.116 22.488C396.524 22.912 397.064 23.124 397.736 23.124C398.168 23.124 398.552 23.024 398.888 22.824C399.232 22.624 399.5 22.344 399.692 21.984C399.884 21.616 399.98 21.192 399.98 20.712C399.98 20.232 399.884 19.808 399.692 19.44C399.5 19.072 399.232 18.792 398.888 18.6C398.552 18.4 398.168 18.3 397.736 18.3ZM405.798 17.328C406.43 17.328 406.994 17.464 407.49 17.736C407.994 18.008 408.386 18.4 408.666 18.912C408.954 19.424 409.098 20.024 409.098 20.712C409.098 21.4 408.954 22 408.666 22.512C408.386 23.016 407.994 23.404 407.49 23.676C406.994 23.948 406.43 24.084 405.798 24.084C405.166 24.084 404.598 23.948 404.094 23.676C403.598 23.404 403.206 23.016 402.918 22.512C402.63 22 402.486 21.4 402.486 20.712C402.486 20.024 402.63 19.424 402.918 18.912C403.206 18.4 403.598 18.008 404.094 17.736C404.598 17.464 405.166 17.328 405.798 17.328ZM405.798 18.288C405.406 18.288 405.042 18.376 404.706 18.552C404.378 18.728 404.11 19 403.902 19.368C403.702 19.728 403.602 20.176 403.602 20.712C403.602 21.24 403.702 21.688 403.902 22.056C404.11 22.416 404.378 22.684 404.706 22.86C405.042 23.036 405.406 23.124 405.798 23.124C406.19 23.124 406.55 23.036 406.878 22.86C407.214 22.684 407.482 22.416 407.682 22.056C407.89 21.688 407.994 21.24 407.994 20.712C407.994 20.176 407.89 19.728 407.682 19.368C407.482 19 407.214 18.728 406.878 18.552C406.55 18.376 406.19 18.288 405.798 18.288ZM411.325 22.716V24H410.005V22.716H411.325ZM412.379 15.48C412.379 15.28 412.447 15.12 412.583 15C412.719 14.872 412.899 14.808 413.123 14.808C413.347 14.808 413.527 14.872 413.663 15C413.799 15.12 413.867 15.28 413.867 15.48C413.867 15.68 413.799 15.844 413.663 15.972C413.527 16.092 413.347 16.152 413.123 16.152C412.899 16.152 412.719 16.092 412.583 15.972C412.447 15.844 412.379 15.68 412.379 15.48ZM413.663 17.412V24H412.571V17.412H413.663ZM418.119 17.328C418.759 17.328 419.299 17.488 419.739 17.808C420.187 18.128 420.499 18.556 420.675 19.092V15.12H421.767V24H420.675V22.32C420.499 22.856 420.187 23.284 419.739 23.604C419.299 23.924 418.759 24.084 418.119 24.084C417.535 24.084 417.015 23.948 416.559 23.676C416.103 23.404 415.743 23.016 415.479 22.512C415.223 22 415.095 21.4 415.095 20.712C415.095 20.024 415.223 19.424 415.479 18.912C415.743 18.4 416.103 18.008 416.559 17.736C417.015 17.464 417.535 17.328 418.119 17.328ZM418.431 18.3C417.759 18.3 417.219 18.516 416.811 18.948C416.411 19.372 416.211 19.96 416.211 20.712C416.211 21.464 416.411 22.056 416.811 22.488C417.219 22.912 417.759 23.124 418.431 23.124C418.863 23.124 419.247 23.024 419.583 22.824C419.927 22.624 420.195 22.344 420.387 21.984C420.579 21.616 420.675 21.192 420.675 20.712C420.675 20.232 420.579 19.808 420.387 19.44C420.195 19.072 419.927 18.792 419.583 18.6C419.247 18.4 418.863 18.3 418.431 18.3Z" fill="white"/>
<path fill-rule="evenodd" clip-rule="evenodd" d="M269.61 15.5694C269.704 15.4512 269.848 15.3745 270.008 15.3745H280.076C280.236 15.3745 280.381 15.4512 280.474 15.5694L275.042 19.3719L269.61 15.5694ZM268 15.8695C268 15.877 268 15.8846 268 15.8921V23.4334C268 24.5397 268.902 25.4418 270.008 25.4418H280.076C281.182 25.4418 282.084 24.5397 282.084 23.4334V15.8921M280.584 17.3234V23.4334C280.584 23.7113 280.354 23.9418 280.076 23.9418H270.008C269.731 23.9418 269.5 23.7113 269.5 23.4334V17.3234L274.612 20.9018C274.87 21.0826 275.214 21.0826 275.472 20.9018L280.584 17.3234ZM282.084 15.8695C282.077 14.7693 281.178 13.8745 280.076 13.8745H270.008C268.907 13.8745 268.007 14.7693 268 15.8695" fill="white" fill-opacity="0.32"/>
<g clip-path="url(#clip0)">
<path d="M1335.33 13.3333H1328.67C1326.83 13.3333 1325.33 14.8257 1325.33 16.6666V23.3333C1325.33 25.1743 1326.83 26.6666 1328.67 26.6666H1335.33C1337.17 26.6666 1338.67 25.1743 1338.67 23.3333V16.6666C1338.67 14.8257 1337.17 13.3333 1335.33 13.3333Z" stroke="white" stroke-width="1.5" stroke-linecap="round" stroke-linejoin="round"/>
<path d="M1334.67 19.58C1334.75 20.1348 1334.65 20.7014 1334.4 21.1993C1334.14 21.6972 1333.73 22.1009 1333.23 22.3531C1332.73 22.6052 1332.16 22.693 1331.61 22.6039C1331.05 22.5148 1330.54 22.2533 1330.14 21.8567C1329.75 21.4601 1329.49 20.9485 1329.4 20.3948C1329.31 19.841 1329.39 19.2732 1329.65 18.7722C1329.9 18.2712 1330.3 17.8625 1330.8 17.6041C1331.3 17.3458 1331.87 17.251 1332.42 17.3333C1332.99 17.4172 1333.51 17.6809 1333.91 18.0855C1334.32 18.4901 1334.58 19.014 1334.67 19.58Z" stroke="white" stroke-width="1.5" stroke-linecap="round" stroke-linejoin="round"/>
</g>
<path d="M1304 13.3333H1302C1301.12 13.3333 1300.27 13.6845 1299.64 14.3096C1299.02 14.9347 1298.67 15.7826 1298.67 16.6666V18.6666H1296.67V21.3333H1298.67V26.6666H1301.33V21.3333H1303.33L1304 18.6666H1301.33V16.6666C1301.33 16.4898 1301.4 16.3203 1301.53 16.1952C1301.65 16.0702 1301.82 16 1302 16H1304V13.3333Z" fill="white" stroke="white" stroke-width="0.5" stroke-linecap="round" stroke-linejoin="round"/>
<path d="M1275.33 14C1274.69 14.4503 1273.99 14.7947 1273.24 15.02C1272.84 14.5583 1272.3 14.2311 1271.71 14.0826C1271.12 13.9341 1270.49 13.9715 1269.92 14.1896C1269.35 14.4078 1268.86 14.7963 1268.52 15.3025C1268.17 15.8087 1267.99 16.4082 1268 17.02V17.6867C1266.83 17.717 1265.67 17.4572 1264.62 16.9303C1263.57 16.4034 1262.67 15.6257 1262 14.6667C1262 14.6667 1259.33 20.6667 1265.33 23.3333C1263.96 24.2653 1262.32 24.7326 1260.67 24.6667C1266.67 28 1274 24.6667 1274 17C1274 16.8143 1273.98 16.6291 1273.95 16.4467C1274.63 15.7757 1275.11 14.9285 1275.33 14Z" fill="white" stroke="white" stroke-linecap="round" stroke-linejoin="round"/>
<line x1="1248.5" y1="8" x2="1248.5" y2="32" stroke="white" stroke-opacity="0.24"/>
<line x1="621.5" y1="8" x2="621.5" y2="32" stroke="white" stroke-opacity="0.24"/>
<path d="M480.996 15.54V16.428H477.3V19.356H480.432V20.208H477.3V24H476.208V15.54H480.996ZM485.278 17.328C485.91 17.328 486.474 17.464 486.97 17.736C487.474 18.008 487.866 18.4 488.146 18.912C488.434 19.424 488.578 20.024 488.578 20.712C488.578 21.4 488.434 22 488.146 22.512C487.866 23.016 487.474 23.404 486.97 23.676C486.474 23.948 485.91 24.084 485.278 24.084C484.646 24.084 484.078 23.948 483.574 23.676C483.078 23.404 482.686 23.016 482.398 22.512C482.11 22 481.966 21.4 481.966 20.712C481.966 20.024 482.11 19.424 482.398 18.912C482.686 18.4 483.078 18.008 483.574 17.736C484.078 17.464 484.646 17.328 485.278 17.328ZM485.278 18.288C484.886 18.288 484.522 18.376 484.186 18.552C483.858 18.728 483.59 19 483.382 19.368C483.182 19.728 483.082 20.176 483.082 20.712C483.082 21.24 483.182 21.688 483.382 22.056C483.59 22.416 483.858 22.684 484.186 22.86C484.522 23.036 484.886 23.124 485.278 23.124C485.67 23.124 486.03 23.036 486.358 22.86C486.694 22.684 486.962 22.416 487.162 22.056C487.37 21.688 487.474 21.24 487.474 20.712C487.474 20.176 487.37 19.728 487.162 19.368C486.962 19 486.694 18.728 486.358 18.552C486.03 18.376 485.67 18.288 485.278 18.288ZM491.093 18.744C491.309 18.288 491.625 17.936 492.041 17.688C492.457 17.432 492.953 17.304 493.529 17.304V18.492H493.193C492.577 18.492 492.073 18.652 491.681 18.972C491.289 19.284 491.093 19.804 491.093 20.532V24H490.001V17.412H491.093V18.744ZM502.706 17.304C503.474 17.304 504.09 17.552 504.554 18.048C505.026 18.536 505.262 19.244 505.262 20.172V24H504.17V20.268C504.17 19.62 504.01 19.124 503.69 18.78C503.378 18.436 502.946 18.264 502.394 18.264C501.818 18.264 501.354 18.456 501.002 18.84C500.658 19.216 500.486 19.772 500.486 20.508V24H499.394V20.268C499.394 19.62 499.234 19.124 498.914 18.78C498.594 18.436 498.162 18.264 497.618 18.264C497.034 18.264 496.566 18.456 496.214 18.84C495.87 19.216 495.698 19.772 495.698 20.508V24H494.606V17.412H495.698V18.912C495.858 18.392 496.142 17.996 496.55 17.724C496.966 17.444 497.442 17.304 497.978 17.304C498.538 17.304 499.022 17.448 499.43 17.736C499.846 18.016 500.142 18.432 500.318 18.984C500.502 18.448 500.81 18.036 501.242 17.748C501.674 17.452 502.162 17.304 502.706 17.304ZM512.814 17.412V24H511.722V22.452C511.554 22.988 511.254 23.4 510.822 23.688C510.398 23.968 509.902 24.108 509.334 24.108C508.574 24.108 507.958 23.864 507.486 23.376C507.014 22.88 506.778 22.172 506.778 21.252V17.412H507.87V21.144C507.87 21.8 508.038 22.308 508.374 22.668C508.71 23.02 509.166 23.196 509.742 23.196C510.342 23.196 510.822 23.004 511.182 22.62C511.542 22.228 511.722 21.66 511.722 20.916V17.412H512.814ZM515.656 15.12V24H514.564V15.12H515.656ZM517.219 15.48C517.219 15.28 517.287 15.12 517.423 15C517.559 14.872 517.739 14.808 517.963 14.808C518.187 14.808 518.367 14.872 518.503 15C518.639 15.12 518.707 15.28 518.707 15.48C518.707 15.68 518.639 15.844 518.503 15.972C518.367 16.092 518.187 16.152 517.963 16.152C517.739 16.152 517.559 16.092 517.423 15.972C517.287 15.844 517.219 15.68 517.219 15.48ZM518.503 17.412V24H517.411V17.412H518.503ZM521.351 18.744C521.567 18.288 521.883 17.936 522.299 17.688C522.715 17.432 523.211 17.304 523.787 17.304V18.492H523.451C522.835 18.492 522.331 18.652 521.939 18.972C521.547 19.284 521.351 19.804 521.351 20.532V24H520.259V17.412H521.351V18.744ZM528.921 20.592V24H527.829V15.54H530.517C531.485 15.54 532.209 15.768 532.689 16.224C533.169 16.672 533.409 17.288 533.409 18.072C533.409 18.864 533.161 19.484 532.665 19.932C532.169 20.372 531.453 20.592 530.517 20.592H528.921ZM530.421 19.68C531.085 19.68 531.561 19.54 531.849 19.26C532.145 18.98 532.293 18.584 532.293 18.072C532.293 17.544 532.145 17.144 531.849 16.872C531.561 16.592 531.085 16.452 530.421 16.452H528.921V19.68H530.421ZM540.745 20.34C540.745 20.572 540.729 20.772 540.697 20.94H535.429C535.453 21.692 535.665 22.256 536.065 22.632C536.473 23.008 536.969 23.196 537.553 23.196C538.081 23.196 538.521 23.064 538.873 22.8C539.233 22.528 539.453 22.168 539.533 21.72H540.697C540.617 22.176 540.437 22.584 540.157 22.944C539.885 23.304 539.529 23.584 539.089 23.784C538.649 23.984 538.153 24.084 537.601 24.084C536.969 24.084 536.409 23.948 535.921 23.676C535.433 23.404 535.049 23.016 534.769 22.512C534.497 22 534.361 21.4 534.361 20.712C534.361 20.024 534.497 19.424 534.769 18.912C535.049 18.4 535.433 18.008 535.921 17.736C536.409 17.464 536.969 17.328 537.601 17.328C538.241 17.328 538.797 17.464 539.269 17.736C539.749 18.008 540.113 18.372 540.361 18.828C540.617 19.284 540.745 19.788 540.745 20.34ZM539.641 20.412C539.665 19.924 539.585 19.516 539.401 19.188C539.217 18.86 538.965 18.616 538.645 18.456C538.325 18.296 537.977 18.216 537.601 18.216C537.001 18.216 536.497 18.404 536.089 18.78C535.681 19.148 535.461 19.692 535.429 20.412H539.641ZM545.641 17.304C546.409 17.304 547.029 17.552 547.501 18.048C547.973 18.536 548.209 19.244 548.209 20.172V24H547.117V20.268C547.117 19.612 546.949 19.108 546.613 18.756C546.277 18.404 545.821 18.228 545.245 18.228C544.645 18.228 544.165 18.424 543.805 18.816C543.445 19.2 543.265 19.764 543.265 20.508V24H542.173V17.412H543.265V18.972C543.433 18.436 543.729 18.024 544.153 17.736C544.585 17.448 545.081 17.304 545.641 17.304ZM552.584 17.328C553.224 17.328 553.764 17.488 554.204 17.808C554.652 18.128 554.964 18.556 555.14 19.092V17.412H556.232V24.108C556.232 24.716 556.104 25.256 555.848 25.728C555.592 26.2 555.232 26.568 554.768 26.832C554.304 27.096 553.764 27.228 553.148 27.228C552.26 27.228 551.536 27.012 550.976 26.58C550.416 26.156 550.06 25.58 549.908 24.852H550.988C551.116 25.292 551.356 25.636 551.708 25.884C552.068 26.14 552.528 26.268 553.088 26.268C553.68 26.268 554.168 26.076 554.552 25.692C554.944 25.316 555.14 24.788 555.14 24.108V22.32C554.964 22.856 554.652 23.284 554.204 23.604C553.764 23.924 553.224 24.084 552.584 24.084C552 24.084 551.48 23.948 551.024 23.676C550.568 23.404 550.208 23.016 549.944 22.512C549.688 22 549.56 21.4 549.56 20.712C549.56 20.024 549.688 19.424 549.944 18.912C550.208 18.4 550.568 18.008 551.024 17.736C551.48 17.464 552 17.328 552.584 17.328ZM552.896 18.3C552.224 18.3 551.684 18.516 551.276 18.948C550.876 19.372 550.676 19.96 550.676 20.712C550.676 21.464 550.876 22.056 551.276 22.488C551.684 22.912 552.224 23.124 552.896 23.124C553.328 23.124 553.712 23.024 554.048 22.824C554.392 22.624 554.66 22.344 554.852 21.984C555.044 21.616 555.14 21.192 555.14 20.712C555.14 20.232 555.044 19.808 554.852 19.44C554.66 19.072 554.392 18.792 554.048 18.6C553.712 18.4 553.328 18.3 552.896 18.3ZM560.67 17.328C561.31 17.328 561.85 17.488 562.29 17.808C562.738 18.128 563.05 18.556 563.226 19.092V17.412H564.318V24H563.226V22.32C563.05 22.856 562.738 23.284 562.29 23.604C561.85 23.924 561.31 24.084 560.67 24.084C560.086 24.084 559.566 23.948 559.11 23.676C558.654 23.404 558.294 23.016 558.03 22.512C557.774 22 557.646 21.4 557.646 20.712C557.646 20.024 557.774 19.424 558.03 18.912C558.294 18.4 558.654 18.008 559.11 17.736C559.566 17.464 560.086 17.328 560.67 17.328ZM560.982 18.3C560.31 18.3 559.77 18.516 559.362 18.948C558.962 19.372 558.762 19.96 558.762 20.712C558.762 21.464 558.962 22.056 559.362 22.488C559.77 22.912 560.31 23.124 560.982 23.124C561.414 23.124 561.798 23.024 562.134 22.824C562.478 22.624 562.746 22.344 562.938 21.984C563.13 21.616 563.226 21.192 563.226 20.712C563.226 20.232 563.13 19.808 562.938 19.44C562.746 19.072 562.478 18.792 562.134 18.6C561.798 18.4 561.414 18.3 560.982 18.3ZM568.756 17.328C569.396 17.328 569.936 17.488 570.376 17.808C570.824 18.128 571.136 18.556 571.312 19.092V15.12H572.404V24H571.312V22.32C571.136 22.856 570.824 23.284 570.376 23.604C569.936 23.924 569.396 24.084 568.756 24.084C568.172 24.084 567.652 23.948 567.196 23.676C566.74 23.404 566.38 23.016 566.116 22.512C565.86 22 565.732 21.4 565.732 20.712C565.732 20.024 565.86 19.424 566.116 18.912C566.38 18.4 566.74 18.008 567.196 17.736C567.652 17.464 568.172 17.328 568.756 17.328ZM569.068 18.3C568.396 18.3 567.856 18.516 567.448 18.948C567.048 19.372 566.848 19.96 566.848 20.712C566.848 21.464 567.048 22.056 567.448 22.488C567.856 22.912 568.396 23.124 569.068 23.124C569.5 23.124 569.884 23.024 570.22 22.824C570.564 22.624 570.832 22.344 571.024 21.984C571.216 21.616 571.312 21.192 571.312 20.712C571.312 20.232 571.216 19.808 571.024 19.44C570.832 19.072 570.564 18.792 570.22 18.6C569.884 18.4 569.5 18.3 569.068 18.3ZM579.998 17.412V24H578.906V22.452C578.738 22.988 578.438 23.4 578.006 23.688C577.582 23.968 577.086 24.108 576.518 24.108C575.758 24.108 575.142 23.864 574.67 23.376C574.198 22.88 573.962 22.172 573.962 21.252V17.412H575.054V21.144C575.054 21.8 575.222 22.308 575.558 22.668C575.894 23.02 576.35 23.196 576.926 23.196C577.526 23.196 578.006 23.004 578.366 22.62C578.726 22.228 578.906 21.66 578.906 20.916V17.412H579.998ZM584.447 17.328C585.087 17.328 585.627 17.488 586.067 17.808C586.515 18.128 586.827 18.556 587.003 19.092V17.412H588.095V24H587.003V22.32C586.827 22.856 586.515 23.284 586.067 23.604C585.627 23.924 585.087 24.084 584.447 24.084C583.863 24.084 583.343 23.948 582.887 23.676C582.431 23.404 582.071 23.016 581.807 22.512C581.551 22 581.423 21.4 581.423 20.712C581.423 20.024 581.551 19.424 581.807 18.912C582.071 18.4 582.431 18.008 582.887 17.736C583.343 17.464 583.863 17.328 584.447 17.328ZM584.759 18.3C584.087 18.3 583.547 18.516 583.139 18.948C582.739 19.372 582.539 19.96 582.539 20.712C582.539 21.464 582.739 22.056 583.139 22.488C583.547 22.912 584.087 23.124 584.759 23.124C585.191 23.124 585.575 23.024 585.911 22.824C586.255 22.624 586.523 22.344 586.715 21.984C586.907 21.616 587.003 21.192 587.003 20.712C587.003 20.232 586.907 19.808 586.715 19.44C586.523 19.072 586.255 18.792 585.911 18.6C585.575 18.4 585.191 18.3 584.759 18.3ZM593.301 17.304C594.069 17.304 594.689 17.552 595.161 18.048C595.633 18.536 595.869 19.244 595.869 20.172V24H594.777V20.268C594.777 19.612 594.609 19.108 594.273 18.756C593.937 18.404 593.481 18.228 592.905 18.228C592.305 18.228 591.825 18.424 591.465 18.816C591.105 19.2 590.925 19.764 590.925 20.508V24H589.833V17.412H590.925V18.972C591.093 18.436 591.389 18.024 591.813 17.736C592.245 17.448 592.741 17.304 593.301 17.304Z" fill="white"/>
<g opacity="0.52">
<path d="M463.667 13.3333H459C458.646 13.3333 458.307 13.4738 458.057 13.7238C457.807 13.9739 457.667 14.313 457.667 14.6666V25.3333C457.667 25.6869 457.807 26.0261 458.057 26.2761C458.307 26.5262 458.646 26.6666 459 26.6666H467C467.353 26.6666 467.693 26.5262 467.943 26.2761C468.193 26.0261 468.333 25.6869 468.333 25.3333V18L463.667 13.3333Z" stroke="white" stroke-width="1.5" stroke-linecap="round" stroke-linejoin="round"/>
<path d="M463.667 13.3333V18H468.333" stroke="white" stroke-width="1.5" stroke-linecap="round" stroke-linejoin="round"/>
</g>
<defs>
<clipPath id="clip0">
<rect width="16" height="16" fill="white" transform="translate(1324 12)"/>
</clipPath>
</defs>
</svg>
